<svg width="37" height="37" viewBox="0 0 37 37" fill="none" xmlns="http://www.w3.org/2000/svg">
<path d="M12.7004 17.0418C11.9681 17.0443 11.2488 17.2352 10.6117 17.5962C11.5087 15.2744 12.9964 13.2272 14.9276 11.657C15.0381 11.566 15.1295 11.4541 15.1968 11.3277C15.2641 11.2014 15.3058 11.063 15.3196 10.9206C15.3334 10.7781 15.3189 10.6343 15.2772 10.4974C15.2354 10.3605 15.167 10.2332 15.076 10.1227C14.985 10.0122 14.8732 9.92068 14.7468 9.85342C14.6205 9.78616 14.4821 9.74444 14.3396 9.73065C14.1972 9.71687 14.0534 9.73128 13.9165 9.77306C13.7796 9.81484 13.6522 9.88318 13.5417 9.97418C9.58228 13.1912 7.82031 17.6457 7.82031 20.4074C7.82713 21.3839 8.11813 22.3373 8.65778 23.1511C9.19743 23.965 9.96237 24.6041 10.8592 24.9905C11.4396 25.2716 12.0752 25.4204 12.7202 25.426C13.2878 25.4536 13.8551 25.3656 14.3878 25.1674C14.9204 24.9692 15.4072 24.6649 15.8187 24.2729C16.2302 23.8809 16.5578 23.4094 16.7817 22.887C17.0055 22.3646 17.121 21.8022 17.121 21.2339C17.121 20.6656 17.0055 20.1032 16.7817 19.5808C16.5578 19.0584 16.2302 18.587 15.8187 18.195C15.4072 17.803 14.9204 17.4987 14.3878 17.3004C13.8551 17.1022 13.2878 17.0142 12.7202 17.0418H12.7004Z" fill="#FF008A"/>
<path d="M23.7279 17.0414C22.9956 17.0429 22.2761 17.2339 21.6393 17.5957C22.5359 15.2764 24.0197 13.2298 25.9453 11.6565C26.0658 11.5696 26.1672 11.459 26.2434 11.3314C26.3196 11.2039 26.3688 11.0621 26.3882 10.9148C26.4075 10.7675 26.3965 10.6178 26.3558 10.4749C26.3151 10.332 26.2455 10.199 26.1515 10.0839C26.0575 9.96893 25.9409 9.87438 25.8089 9.80611C25.677 9.73783 25.5324 9.69729 25.3842 9.68696C25.236 9.67663 25.0873 9.69675 24.9471 9.74606C24.807 9.79537 24.6784 9.87285 24.5693 9.97371C20.6099 13.1908 18.8479 17.6452 18.8479 20.4069C18.8526 21.3723 19.1351 22.316 19.6617 23.1252C20.1883 23.9344 20.9367 24.5749 21.8175 24.9702C22.4126 25.2596 23.0662 25.4086 23.7279 25.4057C24.2956 25.4333 24.8629 25.3454 25.3956 25.1471C25.9282 24.9489 26.415 24.6446 26.8265 24.2526C27.238 23.8606 27.5656 23.3891 27.7895 22.8668C28.0133 22.3444 28.1288 21.782 28.1288 21.2137C28.1288 20.6453 28.0133 20.0829 27.7895 19.5606C27.5656 19.0382 27.238 18.5667 26.8265 18.1747C26.415 17.7827 25.9282 17.4784 25.3956 17.2802C24.8629 17.082 24.2956 16.994 23.7279 17.0216V17.0414Z" fill="#FF008A"/>
</svg>
