<svg width="490" height="555" viewBox="0 0 490 555" fill="none" xmlns="http://www.w3.org/2000/svg">
<path d="M0.286696 101.66C5.20894 227.739 8.48032 296.426 19.1311 400.098C28.1409 439.742 37.6716 456.145 68.5978 467.335C191.761 502.491 278.16 530.638 378.353 554.625C419.147 553.647 433.69 543.019 446.664 519.237C468.835 435.355 472.981 343.51 489.064 226.697C491.22 181.648 482.303 163.352 446.664 144.126C316.098 89.2973 126.309 14.37 126.309 14.37C126.309 14.37 90.0309 -3.08555 68.5978 1.39449C43.5308 9.25527 32.6256 17.9591 19.1311 35.6028C3.56303 56.421 -0.514472 70.8969 0.286696 101.66Z" fill="white"/>
</svg>
